<svg xmlns="http://www.w3.org/2000/svg" viewBox="0 0 158.84 159.14"><defs><style>.cls-1{fill:none;}.cls-2{fill:#2d6ab3;}.cls-3{fill:#a2c089;}.cls-4{fill:#657cbc;}.cls-5{fill:#ec2353;}.cls-6{fill:#91c9b8;}.cls-7{fill:#f37f94;}.cls-8{fill:#d64873;}.cls-9{fill:#d01e4e;}.cls-10{fill:#f37466;}.cls-11{fill:#f06b7d;}.cls-12{fill:#f0537f;}.cls-13{fill:#503f7a;}.cls-14{fill:#6e57a5;}.cls-15{fill:#7b1f2d;}.cls-16{fill:#89489b;}.cls-17{fill:#f0b656;}.cls-18{fill:#46315b;}.cls-19{fill:#5ea687;}.cls-20{fill:#a3509e;}.cls-21{fill:#ef403a;}.cls-22{fill:#ef3f67;}.cls-23{fill:#cb2030;}.cls-24{fill:#1f498a;}.cls-25{fill:#f6927c;}.cls-26{fill:#613e97;}.cls-27{fill:#6d183c;}.cls-28{fill:#5c3a71;}.cls-29{fill:#72c4b7;}.cls-30{fill:#6ea2b4;}.cls-31{fill:#019fc9;}.cls-32{fill:#264080;}.cls-33{fill:#0e8ab9;}.cls-34{fill:#fff;}</style></defs><g id="Layer_2" data-name="Layer 2"><g id="Layer_1-2" data-name="Layer 1"><polygon class="cls-1" points="102.59 114.02 124.7 76.98 124.7 76.98 102.59 114.02"/><polygon class="cls-1" points="146.05 41.21 130.41 42.72 130.41 42.72 146.04 41.21 146.05 41.21"/><polygon class="cls-1" points="116.38 44.08 116.38 44.08 89.45 46.69 116.38 44.08"/><polygon class="cls-2" points="102.84 114.71 107.5 127.36 111.02 125.44 103.01 114.6 102.84 114.71"/><polygon class="cls-3" points="153.88 102.06 158.84 99.35 158.84 77.93 140.12 90.23 153.88 102.06"/><polygon class="cls-4" points="111.02 125.44 153.88 102.06 140.12 90.23 103.01 114.6 111.02 125.44"/><path class="cls-5" d="M124.7,77l-6.61-5.68Q110.52,89.56,101.83,112l.76,2.07Z"/><path class="cls-5" d="M89.45,46.69,77.74,36.62,74.6,38,78,47.24l.19.53,8.38,22.75L87,71.71l5.2,14.13,4.24,11.53L106.72,71.7c1-2.58,2-5.13,2.92-7.66L96.35,52.61Z"/><polygon class="cls-5" points="102.59 114.02 102.84 114.71 103.01 114.6 102.59 114.02"/><polygon class="cls-6" points="158.84 106.32 158.84 99.35 153.88 102.06 158.84 106.32"/><path class="cls-7" d="M89.45,46.69l26.93-2.61q1.32-4.39,2.46-8.65a168.25,168.25,0,0,0,4-18L77.74,36.62Z"/><path class="cls-7" d="M139.43,23.65q-4.22,8.46-9,19.07l15.64-1.51Z"/><path class="cls-5" d="M37.55,7.44c.9,2.12,1.79,4.33,2.66,6.61l18.5,6.22L35.66.45H32a5.53,5.53,0,0,1,2.06.81Q35.75,2.52,37.55,7.44Z"/><path class="cls-8" d="M40.21,14.05q1.86,4.82,3.65,10.11,2.27,6.7,5.16,15.93l9.69-19.82Z"/><polygon class="cls-9" points="52.19 50.29 62.83 84.2 71.92 48.38 52.19 50.29"/><path class="cls-9" d="M41.76,83.26q-4-12.67-8-24.15l-1.16-3.28-9.49,4Z"/><path class="cls-10" d="M72.43,32.05h0l5.3,4.55L122.8,17.46a50.87,50.87,0,0,0,.59-6.26c0-.22,0-.44,0-.65a30.89,30.89,0,0,0-.42-4.8c-.11-.71-.25-1.48-.42-2.26l-3.62-3H68.39L64.06,9.32Z"/><path class="cls-11" d="M74.6,38l3.14-1.33-5.3-4.55h0L58.71,20.27,49,40.09l2.1,6.8.29.92L74.56,38Z"/><polygon class="cls-12" points="72.43 32.05 64.06 9.32 58.71 20.27 72.43 32.06 72.43 32.05"/><path class="cls-13" d="M34.21,105.72l11.33,46.64,7.79-30.7q-3.77-13.17-7.51-25.4-2-6.65-4.06-13l-18.7-23.4Z"/><polygon class="cls-14" points="23.06 59.86 12.22 91.33 4.54 113.63 45.54 152.36 34.2 105.72 23.06 59.86"/><path class="cls-15" d="M32.55,55.83q-1.53-4.34-3-8.4L1.31,40.06,0,39.72v5.36L23.06,59.86Z"/><path class="cls-16" d="M59.35,143.28q-3-11.09-6-21.62l-7.79,30.7Z"/><polygon class="cls-16" points="87.02 71.71 75.91 83.86 75.11 84.73 66.09 94.59 66.17 94.84 77.61 131.29 84.79 126.57 96.46 97.37 92.22 85.84 87.02 71.71"/><path class="cls-16" d="M102.59,114h0l-.76-2.07c-.25.65-.5,1.3-.76,2l-1,2.65,2.79-1.84Z"/><path class="cls-17" d="M139.43,23.65l6.62,17.56,8.55-.83,4.24-.41V33.85L141.59,19.41C140.88,20.77,140.16,22.19,139.43,23.65Z"/><polygon class="cls-5" points="74.56 37.97 74.56 37.96 51.41 47.81 51.41 47.81 52.19 50.29 71.92 48.38 74.56 37.97"/><polygon class="cls-8" points="75.91 83.86 87.02 71.71 86.58 70.52 78.21 47.77 76.17 47.97 71.92 48.38 62.83 84.2 66.09 94.59 75.11 84.73 75.91 83.86"/><polygon class="cls-12" points="74.56 37.97 71.92 48.38 76.17 47.97 78.21 47.77 78.02 47.24 74.6 37.95 74.56 37.96 74.56 37.97"/><polygon class="cls-18" points="0 158.76 7.62 158.76 0 151.28 0 158.76"/><polygon class="cls-19" points="146.05 41.21 146.04 41.21 146.05 41.21 143.31 45.81 124.7 76.98 140.12 90.23 158.84 77.93 158.84 39.97 154.6 40.38 146.05 41.21"/><polygon class="cls-20" points="102.59 114.02 102.59 114.02 103.01 114.6 140.12 90.23 124.7 76.98 102.59 114.02 102.59 114.02"/><path class="cls-21" d="M124.7,77l18.61-31.17,2.74-4.6h0l-15.64,1.51c-1.3,2.9-2.65,5.92-4,9.06q-4,9.09-8.3,19.52h0L124.7,77Z"/><path class="cls-21" d="M96.35,52.61,109.64,64h0c.55-1.47,1.08-2.93,1.6-4.38q2.83-8,5.14-15.58L89.45,46.69Z"/><path class="cls-10" d="M158.84,2.14V.45h-6.22q-1.83,2.63-3.84,6Z"/><path class="cls-11" d="M121.84.45h-2.9l3.62,3C122.36,2.5,122.12,1.48,121.84.45Z"/><polygon class="cls-22" points="64.06 9.32 60.8 0.46 59.64 0.46 44.99 0.46 35.66 0.46 58.71 20.27 64.06 9.32"/><path class="cls-23" d="M29.52,47.43q-.89-2.41-1.76-4.74-2.21-5.86-4.3-11.08Q15.25,11.15,8.66.45H0V39.72l1.31.34Z"/><polygon class="cls-12" points="68.39 0.46 60.8 0.46 64.06 9.32 68.39 0.46"/><polygon class="cls-24" points="49.94 158.76 62.22 158.76 55.02 156 49.94 158.76"/><path class="cls-25" d="M141.59,19.41l17.25,14.44V2.14L148.78,6.42c-.78,1.29-1.59,2.66-2.41,4.12Q144.09,14.56,141.59,19.41Z"/><polygon class="cls-26" points="35.79 158.76 46.15 158.76 45.54 152.36 35.79 158.76"/><path class="cls-26" d="M55,156l6.78-3.7c-.81-3-1.63-6-2.44-9l-13.81,9.08Z"/><polygon class="cls-26" points="79.94 138.72 84.79 126.57 77.61 131.29 79.94 138.72"/><path class="cls-26" d="M102.84,114.71l-2.79,1.84c-2.64,6.8-5,13.09-7.23,18.82l14.68-8Z"/><polygon class="cls-18" points="45.54 152.36 46.15 158.76 49.94 158.76 55.02 156 45.54 152.36"/><polygon class="cls-13" points="0 134.87 0 151.28 0 151.28 7.62 158.76 7.63 158.76 35.79 158.76 45.54 152.36 0 134.87"/><polygon class="cls-27" points="0 45.08 0 69.66 23.06 59.86 0 45.08"/><polygon class="cls-28" points="12.22 91.33 23.06 59.86 0 69.66 0 76.05 0 109.35 4.54 113.63 12.22 91.33"/><polygon class="cls-26" points="4.54 113.63 0 109.35 0 134.87 45.54 152.36 4.54 113.63"/><polygon class="cls-29" points="153.89 143.89 158.84 143.48 158.84 106.32 153.88 102.06 153.89 143.89"/><polygon class="cls-30" points="153.88 143.89 153.89 143.89 153.88 102.06 111.02 125.44 153.88 143.89"/><polygon class="cls-31" points="126.34 146.17 153.88 143.89 111.02 125.44 126.34 146.17"/><path class="cls-14" d="M55,156l7.21,2.76H63.5c-.57-2.16-1.14-4.32-1.71-6.46Z"/><path class="cls-14" d="M92.82,135.37c-3.56,9.35-6.53,17.21-9,23.39h35.21l-11.55-31.4Z"/><polygon class="cls-32" points="111.02 125.44 107.5 127.36 119.05 158.76 135.64 158.76 126.34 146.17 111.02 125.44"/><polygon class="cls-33" points="153.88 143.89 126.34 146.17 135.64 158.76 158.84 158.76 158.84 143.48 158.84 143.48 153.89 143.89 153.88 143.89"/><path class="cls-34" d="M152.62.45l.32-.45H121.72l.12.45c.28,1,.52,2.05.72,3,.17.78.31,1.55.42,2.26a30.89,30.89,0,0,1,.42,4.8c0,.21,0,.43,0,.65a50.87,50.87,0,0,1-.59,6.26,168.25,168.25,0,0,1-4,18q-1.14,4.26-2.46,8.65h0q-2.3,7.59-5.14,15.58c-.52,1.45-1,2.91-1.6,4.38h0c-.93,2.53-1.91,5.08-2.92,7.66L96.46,97.37l-11.67,29.2-4.85,12.15-2.33-7.43L66.17,94.84l-.08-.25L62.83,84.2,52.19,50.29l-.78-2.48h0l-.29-.92L49,40.09q-2.9-9.23-5.16-15.93-1.8-5.3-3.65-10.11c-.87-2.28-1.76-4.49-2.66-6.61q-1.8-4.92-3.48-6.18A5.53,5.53,0,0,0,32,.45,28.46,28.46,0,0,0,26.26,0H8.38c.09.15.18.3.28.45q6.59,10.71,14.8,31.16,2.1,5.22,4.3,11.08.87,2.33,1.76,4.74,1.5,4.07,3,8.4l1.16,3.28q4,11.46,8,24.15,2,6.36,4.06,13,3.75,12.22,7.51,25.4,3,10.53,6,21.62c.81,3,1.63,6,2.44,9,.57,2.14,1.14,4.3,1.71,6.46,0,.13.07.25.1.38H83.69l.15-.38c2.45-6.18,5.42-14,9-23.39,2.18-5.73,4.59-12,7.23-18.82l1-2.65c.26-.65.51-1.3.76-2q8.69-22.4,16.26-40.65h0q4.34-10.44,8.3-19.52c1.37-3.14,2.72-6.16,4-9.06h0q4.8-10.62,9-19.07c.73-1.46,1.45-2.88,2.16-4.24q2.49-4.85,4.78-8.87c.82-1.46,1.63-2.83,2.41-4.12h0Q150.79,3.08,152.62.45Z"/></g></g></svg>